<?xml version="1.0" encoding="utf-8"?>
<!-- Generator: Adobe Illustrator 16.0.0, SVG Export Plug-In . SVG Version: 6.00 Build 0)  -->
<!DOCTYPE svg PUBLIC "-//W3C//DTD SVG 1.1//EN" "http://www.w3.org/Graphics/SVG/1.1/DTD/svg11.dtd">
<svg version="1.1" id="Layer_1" xmlns="http://www.w3.org/2000/svg" xmlns:xlink="http://www.w3.org/1999/xlink" x="0px" y="0px"
	 width="1170px" height="360px" viewBox="0 0 1170 360" enable-background="new 0 0 1170 360" xml:space="preserve">
<path fill="#C1404A" d="M1129.388,54.606c-0.12-24.292-26.146-43.928-58.026-43.77l-2.07,0.01l-56.786,0.282H90.792h-2.999
	c-0.535,0-1.057,0.052-1.561,0.15c-29.749,1.779-53.246,20.784-53.246,43.907v235.504c0,24.293,25.932,44.058,57.806,44.058h56.358
	v0.032l155.976-0.003l-4.324,10.518l40.631-17.894l-42.293-18.429l5.986,11.057H147.15v0.008H90.792
	c-22.767,0-41.291-13.166-41.291-29.347V55.186c0-16.184,18.523-29.347,41.291-29.347h901.4c0.4,0.059,0.808,0.097,1.226,0.095
	l4.89-0.024l14.172-0.07h11.808h0.186V25.82c0.21-0.005,0.417-0.023,0.623-0.043l44.269-0.22l2.07-0.011
	c22.769-0.113,41.357,12.961,41.438,29.142l1.169,235.5c0.08,16.184-18.379,29.439-41.147,29.552l-57.079,0.284l-0.001-0.222
	l-137.97,0.625l5.926-11.083l-42.201,18.635l40.72,17.692l-4.371-10.493l67.25-0.274l0.001,0.181l127.8-0.635
	c31.88-0.158,57.709-20.05,57.589-44.344L1129.388,54.606z"/>
</svg>
