<?xml version="1.0" encoding="utf-8"?>
<!-- Generator: Adobe Illustrator 16.0.0, SVG Export Plug-In . SVG Version: 6.00 Build 0)  -->
<!DOCTYPE svg PUBLIC "-//W3C//DTD SVG 1.1//EN" "http://www.w3.org/Graphics/SVG/1.1/DTD/svg11.dtd">
<svg version="1.1" id="Layer_1" xmlns="http://www.w3.org/2000/svg" xmlns:xlink="http://www.w3.org/1999/xlink" x="0px" y="0px"
	 width="1200px" height="246.172px" viewBox="0 0 1200 246.172" enable-background="new 0 0 1200 246.172" xml:space="preserve">
<g>
	<path fill="#C1404A" d="M1146.792,51.769c-0.333-0.07-0.678-0.107-1.03-0.107h-1.979h-48.146h-0.122v0.012
		c-2.764,0.068-4.986,2.385-4.986,5.244s2.223,5.174,4.986,5.242v0.014h0.122h48.146c15.026,0,27.252,9.406,27.252,20.971v64.25v4
		v35.759c0,11.564-12.227,20.971-27.254,20.971h-37.674v-0.158H963.563l3.947-7.898l-27.914,13.166l26.817,12.787l-2.851-7.514
		h36.466v0.129h143.752c21.041,0,38.154-14.123,38.154-31.482v-35.759v-4v-64.25C1181.935,66.62,1166.427,53.04,1146.792,51.769z"/>
	<path fill="#C1404A" d="M239.023,208.118H96.477v0.006H59.28c-15.026,0-27.252-9.408-27.252-20.971v-35.759v-4v-64.25
		c0-11.564,12.226-20.971,27.252-20.971h48.146h0.122v-0.014c2.764-0.068,4.986-2.383,4.986-5.242s-2.223-5.176-4.986-5.244v-0.012
		h-0.122H59.28h-1.979c-0.353,0-0.697,0.037-1.03,0.107C36.636,53.04,21.128,66.62,21.128,83.144v64.25v4v35.759
		c0,17.359,17.115,31.482,38.152,31.482h37.197v0.023l142.546-0.001l-2.854,7.515l26.816-12.786l-27.914-13.168L239.023,208.118z"/>
</g>
</svg>
